<?xml version="1.0" encoding="utf-8"?>
<!-- Generator: Adobe Illustrator 22.1.0, SVG Export Plug-In . SVG Version: 6.00 Build 0)  -->
<svg version="1.1" xmlns="http://www.w3.org/2000/svg" xmlns:xlink="http://www.w3.org/1999/xlink" x="0px" y="0px"
	 viewBox="0 0 1592 1568.7" style="enable-background:new 0 0 1592 1568.7;" xml:space="preserve">
<style type="text/css">
	.st0{display:none;}
	.st1{display:inline;}
	.st2{font-family:'TrebuchetMS';}
	.st3{font-size:781.2404px;}
	.st4{fill:#00AEEF;}
	.st5{fill:#0CB1E4;}
	.st6{fill:#18B4D8;}
	.st7{fill:#24B8CD;}
	.st8{fill:#31BBC1;}
	.st9{fill:#3DBEB6;}
	.st10{fill:#49C1AB;}
	.st11{fill:#55C59F;}
	.st12{fill:#61C894;}
	.st13{fill:#6DCB89;}
	.st14{fill:#79CE7D;}
	.st15{fill:#86D272;}
	.st16{fill:#92D566;}
	.st17{fill:#9ED85B;}
	.st18{fill:#AADB50;}
	.st19{fill:#B6DF44;}
	.st20{fill:#C2E239;}
	.st21{fill:#CEE52E;}
	.st22{fill:#DBE822;}
	.st23{fill:#E7EC17;}
	.st24{fill:#F3EF0B;}
	.st25{fill:#FFF200;}
	.st26{fill:#FEE607;}
	.st27{fill:#FDDB0D;}
	.st28{fill:#FCCF14;}
	.st29{fill:#FBC41B;}
	.st30{fill:#FAB821;}
	.st31{fill:#FAAD28;}
	.st32{fill:#F9A12F;}
	.st33{fill:#F89635;}
	.st34{fill:#F78A3C;}
	.st35{fill:#F67F43;}
	.st36{fill:#F57349;}
	.st37{fill:#F46850;}
	.st38{fill:#F35C57;}
	.st39{fill:#F2515D;}
	.st40{fill:#F14564;}
	.st41{fill:#F13A6B;}
	.st42{fill:#F02E71;}
	.st43{fill:#EF2378;}
	.st44{fill:#EE177F;}
	.st45{fill:#ED0C85;}
	.st46{fill:#EC008C;}
</style>
<g id="Layer_1" class="st0">
	<g class="st1">
		<rect x="167" y="147" width="1200" height="1200"/>
	</g>
</g>
<g id="Many" class="st0">
	<g class="st1">
		<path d="M1315.5,264.9v1039h-1039v-1039H1315.5 M1335.5,244.9h-1079v1079h1079V244.9L1335.5,244.9z"/>
	</g>
	<g class="st1">
		<path d="M387.8,173.5l1019,202.7l-202.7,1019l-1019-202.7L387.8,173.5 M372.1,150L161.6,1208.2l1058.3,210.5l210.5-1058.3
			L372.1,150L372.1,150z"/>
	</g>
	<g class="st1">
		<path d="M1204.2,173.5l202.7,1019l-1019,202.7l-202.7-1019L1204.2,173.5 M1219.9,150L161.6,360.5l210.5,1058.3l1058.3-210.5
			L1219.9,150L1219.9,150z"/>
	</g>
	<g class="st1">
		<path d="M1077.2,105.6l397.6,959.9l-959.9,397.6L117.2,503.2L1077.2,105.6 M1088,79.5L91.1,492.4L504,1489.2l996.9-412.9
			L1088,79.5L1088,79.5z"/>
	</g>
	<g class="st1">
		<path d="M514.8,105.6l959.9,397.6l-397.6,959.9l-959.9-397.6L514.8,105.6 M504,79.5L91.1,1076.3l996.9,412.9l412.9-996.9L504,79.5
			L504,79.5z"/>
	</g>
	<g class="st1">
		<path d="M796,49.7l734.7,734.7L796,1519L61.3,784.4L796,49.7 M796,21.4l-763,763l763,763l763-763L796,21.4L796,21.4z"/>
	</g>
</g>
<g id="Square_1_" class="st0">
	<g class="st1">
		<path d="M1315.5,264.9v1039h-1039v-1039H1315.5 M1335.5,244.9h-1079v1079h1079V244.9L1335.5,244.9z"/>
	</g>
</g>
<g id="Diamond">
	<g>
		<path d="M796.1,21.2l763.3,763.3l-763.3,763.3L32.9,784.5L796.1,21.2 M796.1,0L11.6,784.5L796.1,1569l784.5-784.5L796.1,0L796.1,0
			z"/>
	</g>
</g>
<g id="Diamond_2">
	<g>
		<path d="M797.2,103.1l682.8,682.8l-682.8,682.8L114.4,785.8L797.2,103.1 M797.2,81.9l-704,704l704,704l704-704L797.2,81.9
			L797.2,81.9z"/>
	</g>
</g>
<g id="Text" class="st0">
	<text transform="matrix(1 0 0 1 354.8281 1006.0439)" class="st1 st2 st3">JT</text>
</g>
<g id="Layer_9" class="st0">
	<g class="st1">
		<path d="M364.5,928.3h66.8c6.1,33.8,26.3,50.7,60.7,50.7c34.1,0,58-7.3,71.9-21.9c13.9-14.6,20.8-55.5,20.8-122.6V481.2h76.3
			v350.2c0,76.3-12.3,131.4-37,165.4c-24.7,34-68.5,50.9-131.6,50.9c-36.4,0-66.2-10.8-89.5-32.4
			C379.6,993.6,366.8,964.6,364.5,928.3z"/>
		<path d="M979.1,549.9V1040h-76.3V549.9H725v-68.7h439.8v68.7H979.1z"/>
	</g>
</g>
<g id="Y" class="st0">
	<g class="st1">
		<g>
			<path class="st4" d="M356,928.1h66.8c6.1,33.8,26.3,50.7,60.7,50.7c34.1,0,58-7.3,71.9-21.9c13.9-14.6,20.8-55.5,20.8-122.6
				V481.1h76.3v350.2c0,76.3-12.3,131.4-37,165.4c-24.7,34-68.5,50.9-131.6,50.9c-36.4,0-66.2-10.8-89.5-32.4
				C371.1,993.5,358.3,964.5,356,928.1z"/>
			<path class="st4" d="M970.6,549.7v490.2h-76.3V549.7H716.5v-68.7h439.8v68.7H970.6z"/>
		</g>
		<g>
			<path class="st5" d="M357.9,930h66.8c6.1,33.8,26.3,50.7,60.7,50.7c34.1,0,58-7.3,71.9-21.9c13.9-14.6,20.8-55.5,20.8-122.6V483
				h76.3v350.2c0,76.3-12.3,131.4-37,165.4c-24.7,34-68.5,50.9-131.6,50.9c-36.4,0-66.2-10.8-89.5-32.4
				C373,995.4,360.2,966.4,357.9,930z"/>
			<polygon class="st5" points="972.5,551.6 972.5,1041.8 896.2,1041.8 896.2,551.6 718.4,551.6 718.4,483 1158.2,483 1158.2,551.6 
							"/>
		</g>
		<g>
			<path class="st6" d="M359.8,931.9h66.8c6.1,33.8,26.3,50.7,60.7,50.7c34.1,0,58-7.3,71.9-21.9c13.9-14.6,20.8-55.5,20.8-122.6
				V484.9h76.3V835c0,76.3-12.3,131.4-37,165.4c-24.7,34-68.5,50.9-131.6,50.9c-36.4,0-66.2-10.8-89.5-32.4
				C374.9,997.3,362.1,968.3,359.8,931.9z"/>
			<polygon class="st6" points="974.4,553.5 974.4,1043.7 898.1,1043.7 898.1,553.5 720.3,553.5 720.3,484.9 1160.1,484.9 
				1160.1,553.5 			"/>
		</g>
		<g>
			<path class="st7" d="M361.7,933.8h66.8c6.1,33.8,26.3,50.7,60.7,50.7c34.1,0,58-7.3,71.9-21.9c13.9-14.6,20.8-55.5,20.8-122.6
				V486.8h76.3V837c0,76.3-12.3,131.4-37,165.4c-24.7,34-68.5,50.9-131.6,50.9c-36.4,0-66.2-10.8-89.5-32.4
				C376.8,999.2,364,970.2,361.7,933.8z"/>
			<polygon class="st7" points="976.3,555.4 976.3,1045.6 900,1045.6 900,555.4 722.2,555.4 722.2,486.8 1162,486.8 1162,555.4 			
				"/>
		</g>
		<g>
			<path class="st8" d="M363.6,935.7h66.8c6.1,33.8,26.3,50.7,60.7,50.7c34.1,0,58-7.3,71.9-21.9c13.9-14.6,20.8-55.5,20.8-122.6
				V488.7H660v350.2c0,76.3-12.3,131.4-37,165.4c-24.7,34-68.5,50.9-131.6,50.9c-36.4,0-66.2-10.8-89.5-32.4
				C378.7,1001.1,365.9,972.1,363.6,935.7z"/>
			<polygon class="st8" points="978.2,557.3 978.2,1047.5 901.9,1047.5 901.9,557.3 724.1,557.3 724.1,488.7 1164,488.7 1164,557.3 
							"/>
		</g>
		<g>
			<path class="st9" d="M365.5,937.7h66.8c6.1,33.8,26.3,50.7,60.7,50.7c34.1,0,58-7.3,71.9-21.9c13.9-14.6,20.8-55.5,20.8-122.6
				V490.6h76.3v350.2c0,76.3-12.3,131.4-37,165.4c-24.7,34-68.5,50.9-131.6,50.9c-36.4,0-66.2-10.8-89.5-32.4
				C380.6,1003,367.8,974,365.5,937.7z"/>
			<polygon class="st9" points="980.1,559.2 980.1,1049.4 903.8,1049.4 903.8,559.2 726,559.2 726,490.6 1165.9,490.6 1165.9,559.2 
							"/>
		</g>
		<g>
			<path class="st10" d="M367.4,939.6h66.8c6.1,33.8,26.3,50.7,60.7,50.7c34.1,0,58-7.3,71.9-21.9c13.9-14.6,20.8-55.5,20.8-122.6
				V492.5h76.3v350.2c0,76.3-12.3,131.4-37,165.4c-24.7,34-68.5,50.9-131.6,50.9c-36.4,0-66.2-10.8-89.5-32.4
				C382.5,1004.9,369.7,975.9,367.4,939.6z"/>
			<polygon class="st10" points="982,561.1 982,1051.3 905.7,1051.3 905.7,561.1 727.9,561.1 727.9,492.5 1167.8,492.5 
				1167.8,561.1 			"/>
		</g>
		<g>
			<path class="st11" d="M369.4,941.5h66.8c6.1,33.8,26.3,50.7,60.7,50.7c34.1,0,58-7.3,71.9-21.9c13.9-14.6,20.8-55.5,20.8-122.6
				V494.4h76.3v350.2c0,76.3-12.3,131.4-37,165.4c-24.7,34-68.5,50.9-131.6,50.9c-36.4,0-66.2-10.8-89.5-32.4
				C384.4,1006.8,371.6,977.8,369.4,941.5z"/>
			<polygon class="st11" points="983.9,563 983.9,1053.2 907.6,1053.2 907.6,563 729.8,563 729.8,494.4 1169.7,494.4 1169.7,563 			
				"/>
		</g>
		<g>
			<path class="st12" d="M371.3,943.4H438c6.1,33.8,26.3,50.7,60.7,50.7c34.1,0,58-7.3,71.9-21.9c13.9-14.6,20.8-55.5,20.8-122.6
				V496.3h76.3v350.2c0,76.3-12.3,131.4-37,165.4c-24.7,34-68.5,50.9-131.6,50.9c-36.4,0-66.2-10.8-89.5-32.4
				C386.3,1008.7,373.5,979.7,371.3,943.4z"/>
			<polygon class="st12" points="985.8,565 985.8,1055.1 909.5,1055.1 909.5,565 731.7,565 731.7,496.3 1171.6,496.3 1171.6,565 			
				"/>
		</g>
		<g>
			<path class="st13" d="M373.2,945.3h66.8c6.1,33.8,26.3,50.7,60.7,50.7c34.1,0,58-7.3,71.9-21.9c13.9-14.6,20.8-55.5,20.8-122.6
				V498.2h76.3v350.2c0,76.3-12.3,131.4-37,165.4c-24.7,34-68.5,50.9-131.6,50.9c-36.4,0-66.2-10.8-89.5-32.4
				C388.2,1010.6,375.5,981.6,373.2,945.3z"/>
			<polygon class="st13" points="987.7,566.9 987.7,1057 911.4,1057 911.4,566.9 733.6,566.9 733.6,498.2 1173.5,498.2 
				1173.5,566.9 			"/>
		</g>
		<g>
			<path class="st14" d="M375.1,947.2h66.8c6.1,33.8,26.3,50.7,60.7,50.7c34.1,0,58-7.3,71.9-21.9c13.9-14.6,20.8-55.5,20.8-122.6
				V500.1h76.3v350.2c0,76.3-12.3,131.4-37,165.4c-24.7,34-68.5,50.9-131.6,50.9c-36.4,0-66.2-10.8-89.5-32.4
				C390.1,1012.5,377.4,983.5,375.1,947.2z"/>
			<polygon class="st14" points="989.6,568.8 989.6,1058.9 913.3,1058.9 913.3,568.8 735.6,568.8 735.6,500.1 1175.4,500.1 
				1175.4,568.8 			"/>
		</g>
		<g>
			<path class="st15" d="M377,949.1h66.8c6.1,33.8,26.3,50.7,60.7,50.7c34.1,0,58-7.3,71.9-21.9c13.9-14.6,20.8-55.5,20.8-122.6V502
				h76.3v350.2c0,76.3-12.3,131.4-37,165.4c-24.7,34-68.5,50.9-131.6,50.9c-36.4,0-66.2-10.8-89.5-32.4
				C392,1014.4,379.3,985.5,377,949.1z"/>
			<polygon class="st15" points="991.5,570.7 991.5,1060.9 915.2,1060.9 915.2,570.7 737.5,570.7 737.5,502 1177.3,502 
				1177.3,570.7 			"/>
		</g>
		<g>
			<path class="st16" d="M378.9,951h66.8c6.1,33.8,26.3,50.7,60.7,50.7c34.1,0,58-7.3,71.9-21.9c13.9-14.6,20.8-55.5,20.8-122.6
				V503.9h76.3v350.2c0,76.3-12.3,131.4-37,165.4c-24.7,34-68.5,50.9-131.6,50.9c-36.4,0-66.2-10.8-89.5-32.4
				C393.9,1016.3,381.2,987.4,378.9,951z"/>
			<polygon class="st16" points="993.4,572.6 993.4,1062.8 917.1,1062.8 917.1,572.6 739.4,572.6 739.4,503.9 1179.2,503.9 
				1179.2,572.6 			"/>
		</g>
		<g>
			<path class="st17" d="M380.8,952.9h66.8c6.1,33.8,26.3,50.7,60.7,50.7c34.1,0,58-7.3,71.9-21.9c13.9-14.6,20.8-55.5,20.8-122.6
				V505.8h76.3V856c0,76.3-12.3,131.4-37,165.4c-24.7,34-68.5,50.9-131.6,50.9c-36.4,0-66.2-10.8-89.5-32.4
				C395.8,1018.3,383.1,989.3,380.8,952.9z"/>
			<polygon class="st17" points="995.3,574.5 995.3,1064.7 919,1064.7 919,574.5 741.3,574.5 741.3,505.8 1181.1,505.8 
				1181.1,574.5 			"/>
		</g>
		<g>
			<path class="st18" d="M382.7,954.8h66.8c6.1,33.8,26.3,50.7,60.7,50.7c34.1,0,58-7.3,71.9-21.9c13.9-14.6,20.8-55.5,20.8-122.6
				V507.7h76.3v350.2c0,76.3-12.3,131.4-37,165.4c-24.7,34-68.5,50.9-131.6,50.9c-36.4,0-66.2-10.8-89.5-32.4
				C397.8,1020.2,385,991.2,382.7,954.8z"/>
			<polygon class="st18" points="997.2,576.4 997.2,1066.6 920.9,1066.6 920.9,576.4 743.2,576.4 743.2,507.7 1183,507.7 
				1183,576.4 			"/>
		</g>
		<g>
			<path class="st19" d="M384.6,956.7h66.8c6.1,33.8,26.3,50.7,60.7,50.7c34.1,0,58-7.3,71.9-21.9c13.9-14.6,20.8-55.5,20.8-122.6
				V509.6H681v350.2c0,76.3-12.3,131.4-37,165.4c-24.7,34-68.5,50.9-131.6,50.9c-36.4,0-66.2-10.8-89.5-32.4
				C399.7,1022.1,386.9,993.1,384.6,956.7z"/>
			<polygon class="st19" points="999.1,578.3 999.1,1068.5 922.8,1068.5 922.8,578.3 745.1,578.3 745.1,509.6 1184.9,509.6 
				1184.9,578.3 			"/>
		</g>
		<g>
			<path class="st20" d="M386.5,958.6h66.8c6.1,33.8,26.3,50.7,60.7,50.7c34.1,0,58-7.3,71.9-21.9c13.9-14.6,20.8-55.5,20.8-122.6
				V511.5h76.3v350.2c0,76.3-12.3,131.4-37,165.4c-24.7,34-68.5,50.9-131.6,50.9c-36.4,0-66.2-10.8-89.5-32.4
				C401.6,1024,388.8,995,386.5,958.6z"/>
			<polygon class="st20" points="1001,580.2 1001,1070.4 924.7,1070.4 924.7,580.2 747,580.2 747,511.5 1186.8,511.5 1186.8,580.2 
							"/>
		</g>
		<g>
			<path class="st21" d="M388.4,960.5h66.8c6.1,33.8,26.3,50.7,60.7,50.7c34.1,0,58-7.3,71.9-21.9c13.9-14.6,20.8-55.5,20.8-122.6
				V513.4h76.3v350.2c0,76.3-12.3,131.4-37,165.4c-24.7,34-68.5,50.9-131.6,50.9c-36.4,0-66.2-10.8-89.5-32.4
				C403.5,1025.9,390.7,996.9,388.4,960.5z"/>
			<polygon class="st21" points="1002.9,582.1 1002.9,1072.3 926.6,1072.3 926.6,582.1 748.9,582.1 748.9,513.4 1188.7,513.4 
				1188.7,582.1 			"/>
		</g>
		<g>
			<path class="st22" d="M390.3,962.4h66.8c6.1,33.8,26.3,50.7,60.7,50.7c34.1,0,58-7.3,71.9-21.9c13.9-14.6,20.8-55.5,20.8-122.6
				V515.3h76.3v350.2c0,76.3-12.3,131.4-37,165.4c-24.7,34-68.5,50.9-131.6,50.9c-36.4,0-66.2-10.8-89.5-32.4
				C405.4,1027.8,392.6,998.8,390.3,962.4z"/>
			<polygon class="st22" points="1004.8,584 1004.8,1074.2 928.6,1074.2 928.6,584 750.8,584 750.8,515.3 1190.6,515.3 1190.6,584 
							"/>
		</g>
		<g>
			<path class="st23" d="M392.2,964.3H459c6.1,33.8,26.3,50.7,60.7,50.7c34.1,0,58-7.3,71.9-21.9c13.9-14.6,20.8-55.5,20.8-122.6
				V517.2h76.3v350.2c0,76.3-12.3,131.4-37,165.4c-24.7,34-68.5,50.9-131.6,50.9c-36.4,0-66.2-10.8-89.5-32.4
				C407.3,1029.7,394.5,1000.7,392.2,964.3z"/>
			<polygon class="st23" points="1006.8,585.9 1006.8,1076.1 930.5,1076.1 930.5,585.9 752.7,585.9 752.7,517.2 1192.5,517.2 
				1192.5,585.9 			"/>
		</g>
		<g>
			<path class="st24" d="M394.1,966.2h66.8c6.1,33.8,26.3,50.7,60.7,50.7c34.1,0,58-7.3,71.9-21.9c13.9-14.6,20.8-55.5,20.8-122.6
				V519.1h76.3v350.2c0,76.3-12.3,131.4-37,165.4c-24.7,34-68.5,50.9-131.6,50.9c-36.4,0-66.2-10.8-89.5-32.4
				C409.2,1031.6,396.4,1002.6,394.1,966.2z"/>
			<polygon class="st24" points="1008.7,587.8 1008.7,1078 932.4,1078 932.4,587.8 754.6,587.8 754.6,519.1 1194.4,519.1 
				1194.4,587.8 			"/>
		</g>
		<g>
			<path class="st25" d="M396,968.1h66.8c6.1,33.8,26.3,50.7,60.7,50.7c34.1,0,58-7.3,71.9-21.9c13.9-14.6,20.8-55.5,20.8-122.6
				V521.1h76.3v350.2c0,76.3-12.3,131.4-37,165.4c-24.7,34-68.5,50.9-131.6,50.9c-36.4,0-66.2-10.8-89.5-32.4
				C411.1,1033.5,398.3,1004.5,396,968.1z"/>
			<path class="st25" d="M1010.6,589.7v490.2h-76.3V589.7H756.5v-68.7h439.8v68.7H1010.6z"/>
		</g>
		<g>
			<path class="st26" d="M397.9,970h66.8c6.1,33.8,26.3,50.7,60.7,50.7c34.1,0,58-7.3,71.9-21.9c13.9-14.6,20.8-55.5,20.8-122.6V523
				h76.3v350.2c0,76.3-12.3,131.4-37,165.4c-24.7,34-68.5,50.9-131.6,50.9c-36.4,0-66.2-10.8-89.5-32.4
				C413,1035.4,400.2,1006.4,397.9,970z"/>
			<polygon class="st26" points="1012.5,591.6 1012.5,1081.8 936.2,1081.8 936.2,591.6 758.4,591.6 758.4,523 1198.2,523 
				1198.2,591.6 			"/>
		</g>
		<g>
			<path class="st27" d="M399.8,971.9h66.8c6.1,33.8,26.3,50.7,60.7,50.7c34.1,0,58-7.3,71.9-21.9c13.9-14.6,20.8-55.5,20.8-122.6
				V524.9h76.3V875c0,76.3-12.3,131.4-37,165.4c-24.7,34-68.5,50.9-131.6,50.9c-36.4,0-66.2-10.8-89.5-32.4
				C414.9,1037.3,402.1,1008.3,399.8,971.9z"/>
			<polygon class="st27" points="1014.4,593.5 1014.4,1083.7 938.1,1083.7 938.1,593.5 760.3,593.5 760.3,524.9 1200.1,524.9 
				1200.1,593.5 			"/>
		</g>
		<g>
			<path class="st28" d="M401.7,973.8h66.8c6.1,33.8,26.3,50.7,60.7,50.7c34.1,0,58-7.3,71.9-21.9c13.9-14.6,20.8-55.5,20.8-122.6
				V526.8h76.3V877c0,76.3-12.3,131.4-37,165.4c-24.7,34-68.5,50.9-131.6,50.9c-36.4,0-66.2-10.8-89.5-32.4
				C416.8,1039.2,404,1010.2,401.7,973.8z"/>
			<polygon class="st28" points="1016.3,595.4 1016.3,1085.6 940,1085.6 940,595.4 762.2,595.4 762.2,526.8 1202,526.8 1202,595.4 
							"/>
		</g>
		<g>
			<path class="st29" d="M403.6,975.7h66.8c6.1,33.8,26.3,50.7,60.7,50.7c34.1,0,58-7.3,71.9-21.9c13.9-14.6,20.8-55.5,20.8-122.6
				V528.7H700v350.2c0,76.3-12.3,131.4-37,165.4c-24.7,34-68.5,50.9-131.6,50.9c-36.4,0-66.2-10.8-89.5-32.4
				C418.7,1041.1,405.9,1012.1,403.6,975.7z"/>
			<polygon class="st29" points="1018.2,597.3 1018.2,1087.5 941.9,1087.5 941.9,597.3 764.1,597.3 764.1,528.7 1204,528.7 
				1204,597.3 			"/>
		</g>
		<g>
			<path class="st30" d="M405.5,977.7h66.8c6.1,33.8,26.3,50.7,60.7,50.7c34.1,0,58-7.3,71.9-21.9c13.9-14.6,20.8-55.5,20.8-122.6
				V530.6h76.3v350.2c0,76.3-12.3,131.4-37,165.4c-24.7,34-68.5,50.9-131.6,50.9c-36.4,0-66.2-10.8-89.5-32.4
				C420.6,1043,407.8,1014,405.5,977.7z"/>
			<polygon class="st30" points="1020.1,599.2 1020.1,1089.4 943.8,1089.4 943.8,599.2 766,599.2 766,530.6 1205.9,530.6 
				1205.9,599.2 			"/>
		</g>
		<g>
			<path class="st31" d="M407.4,979.6h66.8c6.1,33.8,26.3,50.7,60.7,50.7c34.1,0,58-7.3,71.9-21.9c13.9-14.6,20.8-55.5,20.8-122.6
				V532.5h76.3v350.2c0,76.3-12.3,131.4-37,165.4c-24.7,34-68.5,50.9-131.6,50.9c-36.4,0-66.2-10.8-89.5-32.4
				C422.5,1044.9,409.7,1015.9,407.4,979.6z"/>
			<polygon class="st31" points="1022,601.1 1022,1091.3 945.7,1091.3 945.7,601.1 767.9,601.1 767.9,532.5 1207.8,532.5 
				1207.8,601.1 			"/>
		</g>
		<g>
			<path class="st32" d="M409.4,981.5h66.8c6.1,33.8,26.3,50.7,60.7,50.7c34.1,0,58-7.3,71.9-21.9c13.9-14.6,20.8-55.5,20.8-122.6
				V534.4h76.3v350.2c0,76.3-12.3,131.4-37,165.4c-24.7,34-68.5,50.9-131.6,50.9c-36.4,0-66.2-10.8-89.5-32.4
				C424.4,1046.8,411.6,1017.8,409.4,981.5z"/>
			<polygon class="st32" points="1023.9,603 1023.9,1093.2 947.6,1093.2 947.6,603 769.8,603 769.8,534.4 1209.7,534.4 1209.7,603 
							"/>
		</g>
		<g>
			<path class="st33" d="M411.3,983.4H478c6.1,33.8,26.3,50.7,60.7,50.7c34.1,0,58-7.3,71.9-21.9c13.9-14.6,20.8-55.5,20.8-122.6
				V536.3h76.3v350.2c0,76.3-12.3,131.4-37,165.4c-24.7,34-68.5,50.9-131.6,50.9c-36.4,0-66.2-10.8-89.5-32.4
				C426.3,1048.7,413.5,1019.7,411.3,983.4z"/>
			<polygon class="st33" points="1025.8,605 1025.8,1095.1 949.5,1095.1 949.5,605 771.7,605 771.7,536.3 1211.6,536.3 1211.6,605 
							"/>
		</g>
		<g>
			<path class="st34" d="M413.2,985.3h66.8c6.1,33.8,26.3,50.7,60.7,50.7c34.1,0,58-7.3,71.9-21.9c13.9-14.6,20.8-55.5,20.8-122.6
				V538.2h76.3v350.2c0,76.3-12.3,131.4-37,165.4c-24.7,34-68.5,50.9-131.6,50.9c-36.4,0-66.2-10.8-89.5-32.4
				C428.2,1050.6,415.5,1021.6,413.2,985.3z"/>
			<polygon class="st34" points="1027.7,606.9 1027.7,1097 951.4,1097 951.4,606.9 773.6,606.9 773.6,538.2 1213.5,538.2 
				1213.5,606.9 			"/>
		</g>
		<g>
			<path class="st35" d="M415.1,987.2h66.8c6.1,33.8,26.3,50.7,60.7,50.7c34.1,0,58-7.3,71.9-21.9c13.9-14.6,20.8-55.5,20.8-122.6
				V540.1h76.3v350.2c0,76.3-12.3,131.4-37,165.4c-24.7,34-68.5,50.9-131.6,50.9c-36.4,0-66.2-10.8-89.5-32.4
				C430.1,1052.5,417.4,1023.5,415.1,987.2z"/>
			<polygon class="st35" points="1029.6,608.8 1029.6,1098.9 953.3,1098.9 953.3,608.8 775.6,608.8 775.6,540.1 1215.4,540.1 
				1215.4,608.8 			"/>
		</g>
		<g>
			<path class="st36" d="M417,989.1h66.8c6.1,33.8,26.3,50.7,60.7,50.7c34.1,0,58-7.3,71.9-21.9c13.9-14.6,20.8-55.5,20.8-122.6V542
				h76.3v350.2c0,76.3-12.3,131.4-37,165.4c-24.7,34-68.5,50.9-131.6,50.9c-36.4,0-66.2-10.8-89.5-32.4
				C432,1054.4,419.3,1025.5,417,989.1z"/>
			<polygon class="st36" points="1031.5,610.7 1031.5,1100.9 955.2,1100.9 955.2,610.7 777.5,610.7 777.5,542 1217.3,542 
				1217.3,610.7 			"/>
		</g>
		<g>
			<path class="st37" d="M418.9,991h66.8c6.1,33.8,26.3,50.7,60.7,50.7c34.1,0,58-7.3,71.9-21.9c13.9-14.6,20.8-55.5,20.8-122.6
				V543.9h76.3v350.2c0,76.3-12.3,131.4-37,165.4c-24.7,34-68.5,50.9-131.6,50.9c-36.4,0-66.2-10.8-89.5-32.4
				C433.9,1056.3,421.2,1027.4,418.9,991z"/>
			<polygon class="st37" points="1033.4,612.6 1033.4,1102.8 957.1,1102.8 957.1,612.6 779.4,612.6 779.4,543.9 1219.2,543.9 
				1219.2,612.6 			"/>
		</g>
		<g>
			<path class="st38" d="M420.8,992.9h66.8c6.1,33.8,26.3,50.7,60.7,50.7c34.1,0,58-7.3,71.9-21.9c13.9-14.6,20.8-55.5,20.8-122.6
				V545.8h76.3V896c0,76.3-12.3,131.4-37,165.4c-24.7,34-68.5,50.9-131.6,50.9c-36.4,0-66.2-10.8-89.5-32.4
				C435.8,1058.3,423.1,1029.3,420.8,992.9z"/>
			<polygon class="st38" points="1035.3,614.5 1035.3,1104.7 959,1104.7 959,614.5 781.3,614.5 781.3,545.8 1221.1,545.8 
				1221.1,614.5 			"/>
		</g>
		<g>
			<path class="st39" d="M422.7,994.8h66.8c6.1,33.8,26.3,50.7,60.7,50.7c34.1,0,58-7.3,71.9-21.9c13.9-14.6,20.8-55.5,20.8-122.6
				V547.7h76.3v350.2c0,76.3-12.3,131.4-37,165.4c-24.7,34-68.5,50.9-131.6,50.9c-36.4,0-66.2-10.8-89.5-32.4
				C437.8,1060.2,425,1031.2,422.7,994.8z"/>
			<polygon class="st39" points="1037.2,616.4 1037.2,1106.6 960.9,1106.6 960.9,616.4 783.2,616.4 783.2,547.7 1223,547.7 
				1223,616.4 			"/>
		</g>
		<g>
			<path class="st40" d="M424.6,996.7h66.8c6.1,33.8,26.3,50.7,60.7,50.7c34.1,0,58-7.3,71.9-21.9c13.9-14.6,20.8-55.5,20.8-122.6
				V549.6H721v350.2c0,76.3-12.3,131.4-37,165.4c-24.7,34-68.5,50.9-131.6,50.9c-36.4,0-66.2-10.8-89.5-32.4
				C439.7,1062.1,426.9,1033.1,424.6,996.7z"/>
			<polygon class="st40" points="1039.1,618.3 1039.1,1108.5 962.8,1108.5 962.8,618.3 785.1,618.3 785.1,549.6 1224.9,549.6 
				1224.9,618.3 			"/>
		</g>
		<g>
			<path class="st41" d="M426.5,998.6h66.8c6.1,33.8,26.3,50.7,60.7,50.7c34.1,0,58-7.3,71.9-21.9c13.9-14.6,20.8-55.5,20.8-122.6
				V551.5h76.3v350.2c0,76.3-12.3,131.4-37,165.4c-24.7,34-68.5,50.9-131.6,50.9c-36.4,0-66.2-10.8-89.5-32.4
				C441.6,1064,428.8,1035,426.5,998.6z"/>
			<polygon class="st41" points="1041,620.2 1041,1110.4 964.7,1110.4 964.7,620.2 787,620.2 787,551.5 1226.8,551.5 1226.8,620.2 
							"/>
		</g>
		<g>
			<path class="st42" d="M428.4,1000.5h66.8c6.1,33.8,26.3,50.7,60.7,50.7c34.1,0,58-7.3,71.9-21.9c13.9-14.6,20.8-55.5,20.8-122.6
				V553.4h76.3v350.2c0,76.3-12.3,131.4-37,165.4c-24.7,34-68.5,50.9-131.6,50.9c-36.4,0-66.2-10.8-89.5-32.4
				C443.5,1065.9,430.7,1036.9,428.4,1000.5z"/>
			<polygon class="st42" points="1042.9,622.1 1042.9,1112.3 966.6,1112.3 966.6,622.1 788.9,622.1 788.9,553.4 1228.7,553.4 
				1228.7,622.1 			"/>
		</g>
		<g>
			<path class="st43" d="M430.3,1002.4h66.8c6.1,33.8,26.3,50.7,60.7,50.7c34.1,0,58-7.3,71.9-21.9c13.9-14.6,20.8-55.5,20.8-122.6
				V555.3h76.3v350.2c0,76.3-12.3,131.4-37,165.4c-24.7,34-68.5,50.9-131.6,50.9c-36.4,0-66.2-10.8-89.5-32.4
				C445.4,1067.8,432.6,1038.8,430.3,1002.4z"/>
			<polygon class="st43" points="1044.8,624 1044.8,1114.2 968.6,1114.2 968.6,624 790.8,624 790.8,555.3 1230.6,555.3 1230.6,624 
							"/>
		</g>
		<g>
			<path class="st44" d="M432.2,1004.3H499c6.1,33.8,26.3,50.7,60.7,50.7c34.1,0,58-7.3,71.9-21.9c13.9-14.6,20.8-55.5,20.8-122.6
				V557.2h76.3v350.2c0,76.3-12.3,131.4-37,165.4c-24.7,34-68.5,50.9-131.6,50.9c-36.4,0-66.2-10.8-89.5-32.4
				C447.3,1069.7,434.5,1040.7,432.2,1004.3z"/>
			<polygon class="st44" points="1046.8,625.9 1046.8,1116.1 970.5,1116.1 970.5,625.9 792.7,625.9 792.7,557.2 1232.5,557.2 
				1232.5,625.9 			"/>
		</g>
		<g>
			<path class="st45" d="M434.1,1006.2h66.8c6.1,33.8,26.3,50.7,60.7,50.7c34.1,0,58-7.3,71.9-21.9c13.9-14.6,20.8-55.5,20.8-122.6
				V559.1h76.3v350.2c0,76.3-12.3,131.4-37,165.4c-24.7,34-68.5,50.9-131.6,50.9c-36.4,0-66.2-10.8-89.5-32.4
				C449.2,1071.6,436.4,1042.6,434.1,1006.2z"/>
			<polygon class="st45" points="1048.7,627.8 1048.7,1118 972.4,1118 972.4,627.8 794.6,627.8 794.6,559.1 1234.4,559.1 
				1234.4,627.8 			"/>
		</g>
		<g>
			<path class="st46" d="M436,1008.1h66.8c6.1,33.8,26.3,50.7,60.7,50.7c34.1,0,58-7.3,71.9-21.9c13.9-14.6,20.8-55.5,20.8-122.6
				V561.1h76.3v350.2c0,76.3-12.3,131.4-37,165.4c-24.7,34-68.5,50.9-131.6,50.9c-36.4,0-66.2-10.8-89.5-32.4
				C451.1,1073.5,438.3,1044.5,436,1008.1z"/>
			<path class="st46" d="M1050.6,629.7v490.2h-76.3V629.7H796.5v-68.7h439.8v68.7H1050.6z"/>
		</g>
	</g>
</g>
<g id="Layer_6" class="st0">
	<g class="st1">
		<path d="M436,1008.1h66.8c6.1,33.8,26.3,50.7,60.7,50.7c34.1,0,58-7.3,71.9-21.9c13.9-14.6,20.8-55.5,20.8-122.6V561.1h76.3v350.2
			c0,76.3-12.3,131.4-37,165.4c-24.7,34-68.5,50.9-131.6,50.9c-36.4,0-66.2-10.8-89.5-32.4C451.1,1073.5,438.3,1044.5,436,1008.1z"
			/>
		<path d="M1050.6,629.7v490.2h-76.3V629.7H796.5v-68.7h439.8v68.7H1050.6z"/>
	</g>
</g>
<g id="Layer_11">
	<g>
		<g>
			<path class="st4" d="M356.7,904h63.8c5.8,32.4,25.2,48.5,58,48.5c32.6,0,55.5-7,68.8-21c13.3-14,19.9-53.1,19.9-117.3V476.4h73
				v334.9c0,73-11.8,125.7-35.4,158.2c-23.6,32.5-65.5,48.7-125.9,48.7c-34.8,0-63.3-10.3-85.6-31
				C371.1,966.5,358.9,938.8,356.7,904z"/>
			<path class="st4" d="M944.4,542.1v468.8h-73V542.1h-170v-65.7h420.7v65.7H944.4z"/>
		</g>
		<g>
			<path class="st5" d="M358.5,905.8h63.8c5.8,32.4,25.2,48.5,58,48.5c32.6,0,55.5-7,68.8-21c13.3-14,19.9-53.1,19.9-117.3V478.2h73
				v334.9c0,73-11.8,125.7-35.4,158.2C583,1003.7,541,1020,480.7,1020c-34.8,0-63.3-10.3-85.6-31
				C372.9,968.3,360.7,940.6,358.5,905.8z"/>
			<polygon class="st5" points="946.2,543.9 946.2,1012.7 873.3,1012.7 873.3,543.9 703.3,543.9 703.3,478.2 1123.9,478.2 
				1123.9,543.9 			"/>
		</g>
		<g>
			<path class="st6" d="M360.3,907.6h63.8c5.8,32.4,25.2,48.5,58,48.5c32.6,0,55.5-7,68.8-21c13.3-14,19.9-53.1,19.9-117.3V480h73
				v334.9c0,73-11.8,125.7-35.4,158.2c-23.6,32.5-65.5,48.7-125.9,48.7c-34.8,0-63.3-10.3-85.6-31
				C374.7,970.1,362.5,942.4,360.3,907.6z"/>
			<polygon class="st6" points="948.1,545.7 948.1,1014.5 875.1,1014.5 875.1,545.7 705.1,545.7 705.1,480 1125.7,480 1125.7,545.7 
							"/>
		</g>
		<g>
			<path class="st7" d="M362.1,909.4H426c5.8,32.4,25.2,48.5,58,48.5c32.6,0,55.5-7,68.8-21c13.3-14,19.9-53.1,19.9-117.3V481.9h73
				v334.9c0,73-11.8,125.7-35.4,158.2c-23.6,32.5-65.6,48.7-125.9,48.7c-34.8,0-63.3-10.3-85.6-31
				C376.5,971.9,364.3,944.2,362.1,909.4z"/>
			<polygon class="st7" points="949.9,547.5 949.9,1016.3 876.9,1016.3 876.9,547.5 706.9,547.5 706.9,481.9 1127.6,481.9 
				1127.6,547.5 			"/>
		</g>
		<g>
			<path class="st8" d="M364,911.3h63.8c5.8,32.4,25.2,48.5,58,48.5c32.6,0,55.5-7,68.8-21c13.3-14,19.9-53.1,19.9-117.3V483.7h73
				v334.9c0,73-11.8,125.7-35.4,158.2c-23.6,32.5-65.6,48.7-125.9,48.7c-34.8,0-63.3-10.3-85.6-31C378.4,973.8,366.1,946,364,911.3z
				"/>
			<polygon class="st8" points="951.7,549.3 951.7,1018.2 878.7,1018.2 878.7,549.3 708.7,549.3 708.7,483.7 1129.4,483.7 
				1129.4,549.3 			"/>
		</g>
		<g>
			<path class="st9" d="M365.8,913.1h63.8c5.8,32.4,25.2,48.5,58,48.5c32.6,0,55.5-7,68.8-21c13.3-14,19.9-53.1,19.9-117.3V485.5h73
				v334.9c0,73-11.8,125.7-35.4,158.2c-23.6,32.5-65.6,48.7-125.9,48.7c-34.8,0-63.3-10.3-85.6-31
				C380.2,975.6,368,947.9,365.8,913.1z"/>
			<polygon class="st9" points="953.5,551.2 953.5,1020 880.6,1020 880.6,551.2 710.5,551.2 710.5,485.5 1131.2,485.5 1131.2,551.2 
							"/>
		</g>
		<g>
			<path class="st10" d="M367.6,914.9h63.8c5.8,32.4,25.2,48.5,58,48.5c32.6,0,55.5-7,68.8-21c13.3-14,19.9-53.1,19.9-117.3V487.3
				h73v334.9c0,73-11.8,125.7-35.4,158.2c-23.6,32.5-65.5,48.7-125.9,48.7c-34.8,0-63.3-10.3-85.6-31
				C382,977.4,369.8,949.7,367.6,914.9z"/>
			<polygon class="st10" points="955.3,553 955.3,1021.8 882.4,1021.8 882.4,553 712.4,553 712.4,487.3 1133,487.3 1133,553 			"/>
		</g>
		<g>
			<path class="st11" d="M369.4,916.7h63.8c5.8,32.4,25.2,48.5,58,48.5c32.6,0,55.5-7,68.8-21c13.3-14,19.9-53.1,19.9-117.3V489.1
				h73v334.9c0,73-11.8,125.7-35.4,158.2c-23.6,32.5-65.5,48.7-125.9,48.7c-34.8,0-63.3-10.3-85.6-31
				C383.8,979.2,371.6,951.5,369.4,916.7z"/>
			<polygon class="st11" points="957.2,554.8 957.2,1023.6 884.2,1023.6 884.2,554.8 714.2,554.8 714.2,489.1 1134.8,489.1 
				1134.8,554.8 			"/>
		</g>
		<g>
			<path class="st12" d="M371.2,918.5h63.8c5.8,32.4,25.2,48.5,58,48.5c32.6,0,55.5-7,68.8-21c13.3-14,19.9-53.1,19.9-117.3V491h73
				v334.9c0,73-11.8,125.7-35.4,158.2c-23.6,32.5-65.5,48.7-125.9,48.7c-34.8,0-63.3-10.3-85.6-31
				C385.7,981.1,373.4,953.3,371.2,918.5z"/>
			<polygon class="st12" points="959,556.6 959,1025.4 886,1025.4 886,556.6 716,556.6 716,491 1136.7,491 1136.7,556.6 			"/>
		</g>
		<g>
			<path class="st13" d="M373.1,920.4h63.8c5.8,32.4,25.2,48.5,58,48.5c32.6,0,55.5-7,68.8-21c13.3-14,19.9-53.1,19.9-117.3V492.8
				h73v334.9c0,73-11.8,125.7-35.4,158.2c-23.6,32.5-65.6,48.7-125.9,48.7c-34.8,0-63.3-10.3-85.6-31
				C387.5,982.9,375.3,955.1,373.1,920.4z"/>
			<polygon class="st13" points="960.8,558.5 960.8,1027.3 887.8,1027.3 887.8,558.5 717.8,558.5 717.8,492.8 1138.5,492.8 
				1138.5,558.5 			"/>
		</g>
		<g>
			<path class="st14" d="M374.9,922.2h63.8c5.8,32.4,25.2,48.5,58,48.5c32.6,0,55.5-7,68.8-21c13.3-14,19.9-53.1,19.9-117.3V494.6
				h73v334.9c0,73-11.8,125.7-35.4,158.2c-23.6,32.5-65.6,48.7-125.9,48.7c-34.8,0-63.3-10.3-85.6-31
				C389.3,984.7,377.1,957,374.9,922.2z"/>
			<polygon class="st14" points="962.6,560.3 962.6,1029.1 889.7,1029.1 889.7,560.3 719.7,560.3 719.7,494.6 1140.3,494.6 
				1140.3,560.3 			"/>
		</g>
		<g>
			<path class="st15" d="M376.7,924h63.8c5.8,32.4,25.2,48.5,58,48.5c32.6,0,55.5-7,68.8-21c13.3-14,19.9-53.1,19.9-117.3V496.4h73
				v334.9c0,73-11.8,125.7-35.4,158.2c-23.6,32.5-65.6,48.7-125.9,48.7c-34.8,0-63.3-10.3-85.6-31
				C391.1,986.5,378.9,958.8,376.7,924z"/>
			<polygon class="st15" points="964.5,562.1 964.5,1030.9 891.5,1030.9 891.5,562.1 721.5,562.1 721.5,496.4 1142.1,496.4 
				1142.1,562.1 			"/>
		</g>
		<g>
			<path class="st16" d="M378.5,925.8h63.8c5.8,32.4,25.2,48.5,58,48.5c32.6,0,55.5-7,68.8-21c13.3-14,19.9-53.1,19.9-117.3V498.2
				h73v334.9c0,73-11.8,125.7-35.4,158.2c-23.6,32.5-65.6,48.7-125.9,48.7c-34.8,0-63.3-10.3-85.6-31
				C392.9,988.3,380.7,960.6,378.5,925.8z"/>
			<polygon class="st16" points="966.3,563.9 966.3,1032.7 893.3,1032.7 893.3,563.9 723.3,563.9 723.3,498.2 1144,498.2 
				1144,563.9 			"/>
		</g>
		<g>
			<path class="st17" d="M380.4,927.6h63.8c5.8,32.4,25.2,48.5,58,48.5c32.6,0,55.5-7,68.8-21c13.3-14,19.9-53.1,19.9-117.3V500.1
				h73V835c0,73-11.8,125.7-35.4,158.2c-23.6,32.5-65.5,48.7-125.9,48.7c-34.8,0-63.3-10.3-85.6-31
				C394.8,990.2,382.5,962.4,380.4,927.6z"/>
			<polygon class="st17" points="968.1,565.7 968.1,1034.5 895.1,1034.5 895.1,565.7 725.1,565.7 725.1,500.1 1145.8,500.1 
				1145.8,565.7 			"/>
		</g>
		<g>
			<path class="st18" d="M382.2,929.5H446c5.8,32.4,25.2,48.5,58,48.5c32.6,0,55.5-7,68.8-21c13.3-14,19.9-53.1,19.9-117.3V501.9h73
				v334.9c0,73-11.8,125.7-35.4,158.2c-23.6,32.5-65.5,48.7-125.9,48.7c-34.8,0-63.3-10.3-85.6-31
				C396.6,992,384.4,964.3,382.2,929.5z"/>
			<polygon class="st18" points="969.9,567.6 969.9,1036.4 897,1036.4 897,567.6 726.9,567.6 726.9,501.9 1147.6,501.9 
				1147.6,567.6 			"/>
		</g>
		<g>
			<path class="st19" d="M384,931.3h63.8c5.8,32.4,25.2,48.5,58,48.5c32.6,0,55.5-7,68.8-21c13.3-14,19.9-53.1,19.9-117.3V503.7h73
				v334.9c0,73-11.8,125.7-35.4,158.2c-23.6,32.5-65.5,48.7-125.9,48.7c-34.8,0-63.3-10.3-85.6-31
				C398.4,993.8,386.2,966.1,384,931.3z"/>
			<polygon class="st19" points="971.7,569.4 971.7,1038.2 898.8,1038.2 898.8,569.4 728.8,569.4 728.8,503.7 1149.4,503.7 
				1149.4,569.4 			"/>
		</g>
		<g>
			<path class="st20" d="M385.8,933.1h63.8c5.8,32.4,25.2,48.5,58,48.5c32.6,0,55.5-7,68.8-21c13.3-14,19.9-53.1,19.9-117.3V505.5
				h73v334.9c0,73-11.8,125.7-35.4,158.2c-23.6,32.5-65.6,48.7-125.9,48.7c-34.8,0-63.3-10.3-85.6-31
				C400.2,995.6,388,967.9,385.8,933.1z"/>
			<polygon class="st20" points="973.6,571.2 973.6,1040 900.6,1040 900.6,571.2 730.6,571.2 730.6,505.5 1151.2,505.5 
				1151.2,571.2 			"/>
		</g>
		<g>
			<path class="st21" d="M387.6,934.9h63.8c5.8,32.4,25.2,48.5,58,48.5c32.6,0,55.5-7,68.8-21c13.3-14,19.9-53.1,19.9-117.3V507.4
				h73v334.9c0,73-11.8,125.7-35.4,158.2c-23.6,32.5-65.6,48.7-125.9,48.7c-34.8,0-63.3-10.3-85.6-31
				C402.1,997.4,389.8,969.7,387.6,934.9z"/>
			<polygon class="st21" points="975.4,573 975.4,1041.8 902.4,1041.8 902.4,573 732.4,573 732.4,507.4 1153.1,507.4 1153.1,573 			
				"/>
		</g>
		<g>
			<path class="st22" d="M389.5,936.8h63.8c5.8,32.4,25.2,48.5,58,48.5c32.6,0,55.5-7,68.8-21c13.3-14,19.9-53.1,19.9-117.3V509.2
				h73v334.9c0,73-11.8,125.7-35.4,158.2C614,1034.7,572,1051,511.7,1051c-34.8,0-63.3-10.3-85.6-31
				C403.9,999.3,391.7,971.5,389.5,936.8z"/>
			<polygon class="st22" points="977.2,574.8 977.2,1043.7 904.2,1043.7 904.2,574.8 734.2,574.8 734.2,509.2 1154.9,509.2 
				1154.9,574.8 			"/>
		</g>
		<g>
			<path class="st23" d="M391.3,938.6h63.8c5.8,32.4,25.2,48.5,58,48.5c32.6,0,55.5-7,68.8-21c13.3-14,19.9-53.1,19.9-117.3V511h73
				v334.9c0,73-11.8,125.7-35.4,158.2c-23.6,32.5-65.5,48.7-125.9,48.7c-34.8,0-63.3-10.3-85.6-31
				C405.7,1001.1,393.5,973.4,391.3,938.6z"/>
			<polygon class="st23" points="979,576.7 979,1045.5 906.1,1045.5 906.1,576.7 736.1,576.7 736.1,511 1156.7,511 1156.7,576.7 			
				"/>
		</g>
		<g>
			<path class="st24" d="M393.1,940.4H457c5.8,32.4,25.2,48.5,58,48.5c32.6,0,55.5-7,68.8-21c13.3-14,19.9-53.1,19.9-117.3V512.8h73
				v334.9c0,73-11.8,125.7-35.4,158.2c-23.6,32.5-65.5,48.7-125.9,48.7c-34.8,0-63.3-10.3-85.6-31
				C407.5,1002.9,395.3,975.2,393.1,940.4z"/>
			<polygon class="st24" points="980.9,578.5 980.9,1047.3 907.9,1047.3 907.9,578.5 737.9,578.5 737.9,512.8 1158.5,512.8 
				1158.5,578.5 			"/>
		</g>
		<g>
			<path class="st25" d="M394.9,942.2h63.8c5.8,32.4,25.2,48.5,58,48.5c32.6,0,55.5-7,68.8-21c13.3-14,19.9-53.1,19.9-117.3V514.6
				h73v334.9c0,73-11.8,125.7-35.4,158.2c-23.6,32.5-65.5,48.7-125.9,48.7c-34.8,0-63.3-10.3-85.6-31
				C409.3,1004.7,397.1,977,394.9,942.2z"/>
			<path class="st25" d="M982.7,580.3v468.8h-73V580.3h-170v-65.7h420.7v65.7H982.7z"/>
		</g>
		<g>
			<path class="st26" d="M396.8,944h63.8c5.8,32.4,25.2,48.5,58,48.5c32.6,0,55.5-7,68.8-21c13.3-14,19.9-53.1,19.9-117.3V516.5h73
				v334.9c0,73-11.8,125.7-35.4,158.2c-23.6,32.5-65.6,48.7-125.9,48.7c-34.8,0-63.3-10.3-85.6-31
				C411.2,1006.6,398.9,978.8,396.8,944z"/>
			<polygon class="st26" points="984.5,582.1 984.5,1050.9 911.5,1050.9 911.5,582.1 741.5,582.1 741.5,516.5 1162.2,516.5 
				1162.2,582.1 			"/>
		</g>
		<g>
			<path class="st27" d="M398.6,945.9h63.8c5.8,32.4,25.2,48.5,58,48.5c32.6,0,55.5-7,68.8-21c13.3-14,19.9-53.1,19.9-117.3V518.3
				h73v334.9c0,73-11.8,125.7-35.4,158.2c-23.6,32.5-65.6,48.7-125.9,48.7c-34.8,0-63.3-10.3-85.6-31
				C413,1008.4,400.8,980.7,398.6,945.9z"/>
			<polygon class="st27" points="986.3,584 986.3,1052.8 913.4,1052.8 913.4,584 743.3,584 743.3,518.3 1164,518.3 1164,584 			"/>
		</g>
		<g>
			<path class="st28" d="M400.4,947.7h63.8c5.8,32.4,25.2,48.5,58,48.5c32.6,0,55.5-7,68.8-21c13.3-14,19.9-53.1,19.9-117.3V520.1
				h73V855c0,73-11.8,125.7-35.4,158.2c-23.6,32.5-65.6,48.7-125.9,48.7c-34.8,0-63.3-10.3-85.6-31
				C414.8,1010.2,402.6,982.5,400.4,947.7z"/>
			<polygon class="st28" points="988.1,585.8 988.1,1054.6 915.2,1054.6 915.2,585.8 745.2,585.8 745.2,520.1 1165.8,520.1 
				1165.8,585.8 			"/>
		</g>
		<g>
			<path class="st29" d="M402.2,949.5h63.8c5.8,32.4,25.2,48.5,58,48.5c32.6,0,55.5-7,68.8-21c13.3-14,19.9-53.1,19.9-117.3V521.9
				h73v334.9c0,73-11.8,125.7-35.4,158.2c-23.6,32.5-65.5,48.7-125.9,48.7c-34.8,0-63.3-10.3-85.6-31
				C416.6,1012,404.4,984.3,402.2,949.5z"/>
			<polygon class="st29" points="990,587.6 990,1056.4 917,1056.4 917,587.6 747,587.6 747,521.9 1167.6,521.9 1167.6,587.6 			"/>
		</g>
		<g>
			<path class="st30" d="M404,951.3h63.8c5.8,32.4,25.2,48.5,58,48.5c32.6,0,55.5-7,68.8-21c13.3-14,19.9-53.1,19.9-117.3V523.7h73
				v334.9c0,73-11.8,125.7-35.4,158.2c-23.6,32.5-65.5,48.7-125.9,48.7c-34.8,0-63.3-10.3-85.6-31
				C418.4,1013.8,406.2,986.1,404,951.3z"/>
			<polygon class="st30" points="991.8,589.4 991.8,1058.2 918.8,1058.2 918.8,589.4 748.8,589.4 748.8,523.7 1169.5,523.7 
				1169.5,589.4 			"/>
		</g>
		<g>
			<path class="st31" d="M405.9,953.2h63.8c5.8,32.4,25.2,48.5,58,48.5c32.6,0,55.5-7,68.8-21c13.3-14,19.9-53.1,19.9-117.3V525.6
				h73v334.9c0,73-11.8,125.7-35.4,158.2c-23.6,32.5-65.5,48.7-125.9,48.7c-34.8,0-63.3-10.3-85.6-31
				C420.3,1015.7,408,987.9,405.9,953.2z"/>
			<polygon class="st31" points="993.6,591.2 993.6,1060 920.6,1060 920.6,591.2 750.6,591.2 750.6,525.6 1171.3,525.6 
				1171.3,591.2 			"/>
		</g>
		<g>
			<path class="st32" d="M407.7,955h63.8c5.8,32.4,25.2,48.5,58,48.5c32.6,0,55.5-7,68.8-21c13.3-14,19.9-53.1,19.9-117.3V527.4h73
				v334.9c0,73-11.8,125.7-35.4,158.2c-23.6,32.5-65.6,48.7-125.9,48.7c-34.8,0-63.3-10.3-85.6-31
				C422.1,1017.5,409.9,989.8,407.7,955z"/>
			<polygon class="st32" points="995.4,593.1 995.4,1061.9 922.5,1061.9 922.5,593.1 752.4,593.1 752.4,527.4 1173.1,527.4 
				1173.1,593.1 			"/>
		</g>
		<g>
			<path class="st33" d="M409.5,956.8h63.8c5.8,32.4,25.2,48.5,58,48.5c32.6,0,55.5-7,68.8-21c13.3-14,19.9-53.1,19.9-117.3V529.2
				h73v334.9c0,73-11.8,125.7-35.4,158.2C634,1054.8,592,1071,531.7,1071c-34.8,0-63.3-10.3-85.6-31
				C423.9,1019.3,411.7,991.6,409.5,956.8z"/>
			<polygon class="st33" points="997.2,594.9 997.2,1063.7 924.3,1063.7 924.3,594.9 754.3,594.9 754.3,529.2 1174.9,529.2 
				1174.9,594.9 			"/>
		</g>
		<g>
			<path class="st34" d="M411.3,958.6h63.8c5.8,32.4,25.2,48.5,58,48.5c32.6,0,55.5-7,68.8-21c13.3-14,19.9-53.1,19.9-117.3V531h73
				V866c0,73-11.8,125.7-35.4,158.2c-23.6,32.5-65.6,48.7-125.9,48.7c-34.8,0-63.3-10.3-85.6-31
				C425.7,1021.1,413.5,993.4,411.3,958.6z"/>
			<polygon class="st34" points="999.1,596.7 999.1,1065.5 926.1,1065.5 926.1,596.7 756.1,596.7 756.1,531 1176.7,531 
				1176.7,596.7 			"/>
		</g>
		<g>
			<path class="st35" d="M413.1,960.4H477c5.8,32.4,25.2,48.5,58,48.5c32.6,0,55.5-7,68.8-21c13.3-14,19.9-53.1,19.9-117.3V532.9h73
				v334.9c0,73-11.8,125.7-35.4,158.2c-23.6,32.5-65.6,48.7-125.9,48.7c-34.8,0-63.3-10.3-85.6-31
				C427.6,1023,415.3,995.2,413.1,960.4z"/>
			<polygon class="st35" points="1000.9,598.5 1000.9,1067.3 927.9,1067.3 927.9,598.5 757.9,598.5 757.9,532.9 1178.6,532.9 
				1178.6,598.5 			"/>
		</g>
		<g>
			<path class="st36" d="M415,962.3h63.8c5.8,32.4,25.2,48.5,58,48.5c32.6,0,55.5-7,68.8-21c13.3-14,19.9-53.1,19.9-117.3V534.7h73
				v334.9c0,73-11.8,125.7-35.4,158.2c-23.6,32.5-65.5,48.7-125.9,48.7c-34.8,0-63.3-10.3-85.6-31C429.4,1024.8,417.2,997,415,962.3
				z"/>
			<polygon class="st36" points="1002.7,600.3 1002.7,1069.2 929.7,1069.2 929.7,600.3 759.7,600.3 759.7,534.7 1180.4,534.7 
				1180.4,600.3 			"/>
		</g>
		<g>
			<path class="st37" d="M416.8,964.1h63.8c5.8,32.4,25.2,48.5,58,48.5c32.6,0,55.5-7,68.8-21c13.3-14,19.9-53.1,19.9-117.3V536.5
				h73v334.9c0,73-11.8,125.7-35.4,158.2c-23.6,32.5-65.5,48.7-125.9,48.7c-34.8,0-63.3-10.3-85.6-31
				C431.2,1026.6,419,998.9,416.8,964.1z"/>
			<polygon class="st37" points="1004.5,602.2 1004.5,1071 931.6,1071 931.6,602.2 761.6,602.2 761.6,536.5 1182.2,536.5 
				1182.2,602.2 			"/>
		</g>
		<g>
			<path class="st38" d="M418.6,965.9h63.8c5.8,32.4,25.2,48.5,58,48.5c32.6,0,55.5-7,68.8-21c13.3-14,19.9-53.1,19.9-117.3V538.3
				h73v334.9c0,73-11.8,125.7-35.4,158.2c-23.6,32.5-65.5,48.7-125.9,48.7c-34.8,0-63.3-10.3-85.6-31
				C433,1028.4,420.8,1000.7,418.6,965.9z"/>
			<polygon class="st38" points="1006.4,604 1006.4,1072.8 933.4,1072.8 933.4,604 763.4,604 763.4,538.3 1184,538.3 1184,604 			
				"/>
		</g>
		<g>
			<path class="st39" d="M420.4,967.7h63.8c5.8,32.4,25.2,48.5,58,48.5c32.6,0,55.5-7,68.8-21c13.3-14,19.9-53.1,19.9-117.3V540.1
				h73v334.9c0,73-11.8,125.7-35.4,158.2c-23.6,32.5-65.6,48.7-125.9,48.7c-34.8,0-63.3-10.3-85.6-31
				C434.8,1030.2,422.6,1002.5,420.4,967.7z"/>
			<polygon class="st39" points="1008.2,605.8 1008.2,1074.6 935.2,1074.6 935.2,605.8 765.2,605.8 765.2,540.1 1185.9,540.1 
				1185.9,605.8 			"/>
		</g>
		<g>
			<path class="st40" d="M422.3,969.5h63.8c5.8,32.4,25.2,48.5,58,48.5c32.6,0,55.5-7,68.8-21c13.3-14,19.9-53.1,19.9-117.3V542h73
				v334.9c0,73-11.8,125.7-35.4,158.2c-23.6,32.5-65.6,48.7-125.9,48.7c-34.8,0-63.3-10.3-85.6-31
				C436.7,1032.1,424.4,1004.3,422.3,969.5z"/>
			<polygon class="st40" points="1010,607.6 1010,1076.4 937,1076.4 937,607.6 767,607.6 767,542 1187.7,542 1187.7,607.6 			"/>
		</g>
		<g>
			<path class="st41" d="M424.1,971.4h63.8c5.8,32.4,25.2,48.5,58,48.5c32.6,0,55.5-7,68.8-21c13.3-14,19.9-53.1,19.9-117.3V543.8
				h73v334.9c0,73-11.8,125.7-35.4,158.2c-23.6,32.5-65.6,48.7-125.9,48.7c-34.8,0-63.3-10.3-85.6-31
				C438.5,1033.9,426.3,1006.2,424.1,971.4z"/>
			<polygon class="st41" points="1011.8,609.5 1011.8,1078.3 938.9,1078.3 938.9,609.5 768.8,609.5 768.8,543.8 1189.5,543.8 
				1189.5,609.5 			"/>
		</g>
		<g>
			<path class="st42" d="M425.9,973.2h63.8c5.8,32.4,25.2,48.5,58,48.5c32.6,0,55.5-7,68.8-21c13.3-14,19.9-53.1,19.9-117.3V545.6
				h73v334.9c0,73-11.8,125.7-35.4,158.2c-23.6,32.5-65.5,48.7-125.9,48.7c-34.8,0-63.3-10.3-85.6-31
				C440.3,1035.7,428.1,1008,425.9,973.2z"/>
			<polygon class="st42" points="1013.6,611.3 1013.6,1080.1 940.7,1080.1 940.7,611.3 770.7,611.3 770.7,545.6 1191.3,545.6 
				1191.3,611.3 			"/>
		</g>
		<g>
			<path class="st43" d="M427.7,975h63.8c5.8,32.4,25.2,48.5,58,48.5c32.6,0,55.5-7,68.8-21c13.3-14,19.9-53.1,19.9-117.3V547.4h73
				v334.9c0,73-11.8,125.7-35.4,158.2c-23.6,32.5-65.5,48.7-125.9,48.7c-34.8,0-63.3-10.3-85.6-31
				C442.1,1037.5,429.9,1009.8,427.7,975z"/>
			<polygon class="st43" points="1015.5,613.1 1015.5,1081.9 942.5,1081.9 942.5,613.1 772.5,613.1 772.5,547.4 1193.1,547.4 
				1193.1,613.1 			"/>
		</g>
		<g>
			<path class="st44" d="M429.5,976.8h63.8c5.8,32.4,25.2,48.5,58,48.5c32.6,0,55.5-7,68.8-21c13.3-14,19.9-53.1,19.9-117.3V549.3
				h73v334.9c0,73-11.8,125.7-35.4,158.2c-23.6,32.5-65.5,48.7-125.9,48.7c-34.8,0-63.3-10.3-85.6-31
				C444,1039.3,431.7,1011.6,429.5,976.8z"/>
			<polygon class="st44" points="1017.3,614.9 1017.3,1083.7 944.3,1083.7 944.3,614.9 774.3,614.9 774.3,549.3 1195,549.3 
				1195,614.9 			"/>
		</g>
		<g>
			<path class="st45" d="M431.4,978.7h63.8c5.8,32.4,25.2,48.5,58,48.5c32.6,0,55.5-7,68.8-21c13.3-14,19.9-53.1,19.9-117.3V551.1
				h73V886c0,73-11.8,125.7-35.4,158.2c-23.6,32.5-65.6,48.7-125.9,48.7c-34.8,0-63.3-10.3-85.6-31
				C445.8,1041.2,433.6,1013.4,431.4,978.7z"/>
			<polygon class="st45" points="1019.1,616.7 1019.1,1085.6 946.1,1085.6 946.1,616.7 776.1,616.7 776.1,551.1 1196.8,551.1 
				1196.8,616.7 			"/>
		</g>
		<g>
			<path class="st46" d="M433.2,980.5H497c5.8,32.4,25.2,48.5,58,48.5c32.6,0,55.5-7,68.8-21c13.3-14,19.9-53.1,19.9-117.3V552.9h73
				v334.9c0,73-11.8,125.7-35.4,158.2c-23.6,32.5-65.6,48.7-125.9,48.7c-34.8,0-63.3-10.3-85.6-31
				C447.6,1043,435.4,1015.3,433.2,980.5z"/>
			<path class="st46" d="M1020.9,618.6v468.8h-73V618.6H778v-65.7h420.7v65.7H1020.9z"/>
		</g>
	</g>
</g>
<g id="Layer_12">
	<g>
		<path d="M433.2,980.5H497c5.8,32.4,25.2,48.5,58,48.5c32.6,0,55.5-7,68.8-21c13.3-14,19.9-53.1,19.9-117.3V552.9h73v334.9
			c0,73-11.8,125.7-35.4,158.2c-23.6,32.5-65.6,48.7-125.9,48.7c-34.8,0-63.3-10.3-85.6-31C447.6,1043,435.4,1015.3,433.2,980.5z"/>
		<path d="M1020.9,618.6v468.8h-73V618.6H778v-65.7h420.7v65.7H1020.9z"/>
	</g>
</g>
</svg>
